<mxfile host="app.diagrams.net" modified="2023-09-09T12:11:19.669Z" agent="Mozilla/5.0 (Macintosh; Intel Mac OS X 10_15_7) AppleWebKit/537.36 (KHTML, like Gecko) Chrome/116.0.0.0 Safari/537.36" etag="Ky0IIQaxLkrAKaS_OlGI" version="21.7.2" type="device">
  <diagram name="Page-1" id="-TfxzJIQFW5ECv-QuIHN">
    <mxGraphModel dx="684" dy="983" grid="1" gridSize="10" guides="1" tooltips="1" connect="1" arrows="1" fold="1" page="1" pageScale="1" pageWidth="850" pageHeight="1100" math="0" shadow="0">
      <root>
        <mxCell id="0" />
        <mxCell id="1" parent="0" />
        <mxCell id="G9r8HT_jU-UsG_awBwpW-21" value="Memory Map - First Block" style="swimlane;fontStyle=0;childLayout=stackLayout;horizontal=1;startSize=26;horizontalStack=0;resizeParent=1;resizeParentMax=0;resizeLast=0;collapsible=1;marginBottom=0;align=center;fontSize=14;" vertex="1" parent="1">
          <mxGeometry x="220" y="220" width="180" height="476" as="geometry">
            <mxRectangle x="220" y="220" width="60" height="30" as="alternateBounds" />
          </mxGeometry>
        </mxCell>
        <mxCell id="G9r8HT_jU-UsG_awBwpW-22" value="0" style="text;strokeColor=none;fillColor=none;spacingLeft=4;spacingRight=4;overflow=hidden;rotatable=0;points=[[0,0.5],[1,0.5]];portConstraint=eastwest;fontSize=12;whiteSpace=wrap;html=1;" vertex="1" parent="G9r8HT_jU-UsG_awBwpW-21">
          <mxGeometry y="26" width="180" height="30" as="geometry" />
        </mxCell>
        <mxCell id="G9r8HT_jU-UsG_awBwpW-23" value="3" style="text;strokeColor=none;fillColor=none;spacingLeft=4;spacingRight=4;overflow=hidden;rotatable=0;points=[[0,0.5],[1,0.5]];portConstraint=eastwest;fontSize=12;whiteSpace=wrap;html=1;" vertex="1" parent="G9r8HT_jU-UsG_awBwpW-21">
          <mxGeometry y="56" width="180" height="30" as="geometry" />
        </mxCell>
        <mxCell id="G9r8HT_jU-UsG_awBwpW-33" style="edgeStyle=orthogonalEdgeStyle;rounded=0;orthogonalLoop=1;jettySize=auto;html=1;entryX=0;entryY=0.5;entryDx=0;entryDy=0;" edge="1" parent="G9r8HT_jU-UsG_awBwpW-21" source="G9r8HT_jU-UsG_awBwpW-24" target="G9r8HT_jU-UsG_awBwpW-22">
          <mxGeometry relative="1" as="geometry" />
        </mxCell>
        <mxCell id="G9r8HT_jU-UsG_awBwpW-24" value="counter" style="text;strokeColor=none;fillColor=none;spacingLeft=4;spacingRight=4;overflow=hidden;rotatable=0;points=[[0,0.5],[1,0.5]];portConstraint=eastwest;fontSize=12;whiteSpace=wrap;html=1;" vertex="1" parent="G9r8HT_jU-UsG_awBwpW-21">
          <mxGeometry y="86" width="180" height="30" as="geometry" />
        </mxCell>
        <mxCell id="G9r8HT_jU-UsG_awBwpW-34" style="edgeStyle=orthogonalEdgeStyle;rounded=0;orthogonalLoop=1;jettySize=auto;html=1;entryX=0;entryY=0.5;entryDx=0;entryDy=0;" edge="1" parent="G9r8HT_jU-UsG_awBwpW-21" source="G9r8HT_jU-UsG_awBwpW-31" target="G9r8HT_jU-UsG_awBwpW-23">
          <mxGeometry relative="1" as="geometry">
            <Array as="points">
              <mxPoint x="-30" y="131" />
              <mxPoint x="-30" y="71" />
            </Array>
          </mxGeometry>
        </mxCell>
        <mxCell id="G9r8HT_jU-UsG_awBwpW-31" value="theNumberThre" style="text;strokeColor=none;fillColor=none;spacingLeft=4;spacingRight=4;overflow=hidden;rotatable=0;points=[[0,0.5],[1,0.5]];portConstraint=eastwest;fontSize=12;whiteSpace=wrap;html=1;" vertex="1" parent="G9r8HT_jU-UsG_awBwpW-21">
          <mxGeometry y="116" width="180" height="30" as="geometry" />
        </mxCell>
        <mxCell id="G9r8HT_jU-UsG_awBwpW-32" value="&quot;123&quot;" style="text;strokeColor=none;fillColor=none;spacingLeft=4;spacingRight=4;overflow=hidden;rotatable=0;points=[[0,0.5],[1,0.5]];portConstraint=eastwest;fontSize=12;whiteSpace=wrap;html=1;" vertex="1" parent="G9r8HT_jU-UsG_awBwpW-21">
          <mxGeometry y="146" width="180" height="30" as="geometry" />
        </mxCell>
        <mxCell id="G9r8HT_jU-UsG_awBwpW-36" style="edgeStyle=orthogonalEdgeStyle;rounded=0;orthogonalLoop=1;jettySize=auto;html=1;entryX=0;entryY=0.5;entryDx=0;entryDy=0;" edge="1" parent="G9r8HT_jU-UsG_awBwpW-21" source="G9r8HT_jU-UsG_awBwpW-35" target="G9r8HT_jU-UsG_awBwpW-32">
          <mxGeometry relative="1" as="geometry" />
        </mxCell>
        <mxCell id="G9r8HT_jU-UsG_awBwpW-35" value="aString" style="text;strokeColor=none;fillColor=none;spacingLeft=4;spacingRight=4;overflow=hidden;rotatable=0;points=[[0,0.5],[1,0.5]];portConstraint=eastwest;fontSize=12;whiteSpace=wrap;html=1;" vertex="1" parent="G9r8HT_jU-UsG_awBwpW-21">
          <mxGeometry y="176" width="180" height="30" as="geometry" />
        </mxCell>
        <mxCell id="G9r8HT_jU-UsG_awBwpW-37" value="&quot;123&quot; (str object)" style="text;strokeColor=none;fillColor=none;spacingLeft=4;spacingRight=4;overflow=hidden;rotatable=0;points=[[0,0.5],[1,0.5]];portConstraint=eastwest;fontSize=12;whiteSpace=wrap;html=1;" vertex="1" parent="G9r8HT_jU-UsG_awBwpW-21">
          <mxGeometry y="206" width="180" height="30" as="geometry" />
        </mxCell>
        <mxCell id="G9r8HT_jU-UsG_awBwpW-39" style="edgeStyle=orthogonalEdgeStyle;rounded=0;orthogonalLoop=1;jettySize=auto;html=1;entryX=0;entryY=0.5;entryDx=0;entryDy=0;" edge="1" parent="G9r8HT_jU-UsG_awBwpW-21" source="G9r8HT_jU-UsG_awBwpW-38" target="G9r8HT_jU-UsG_awBwpW-37">
          <mxGeometry relative="1" as="geometry" />
        </mxCell>
        <mxCell id="G9r8HT_jU-UsG_awBwpW-38" value="bString" style="text;strokeColor=none;fillColor=none;spacingLeft=4;spacingRight=4;overflow=hidden;rotatable=0;points=[[0,0.5],[1,0.5]];portConstraint=eastwest;fontSize=12;whiteSpace=wrap;html=1;" vertex="1" parent="G9r8HT_jU-UsG_awBwpW-21">
          <mxGeometry y="236" width="180" height="30" as="geometry" />
        </mxCell>
        <mxCell id="G9r8HT_jU-UsG_awBwpW-41" value="&quot;123&quot; (str object)" style="text;strokeColor=none;fillColor=none;spacingLeft=4;spacingRight=4;overflow=hidden;rotatable=0;points=[[0,0.5],[1,0.5]];portConstraint=eastwest;fontSize=12;whiteSpace=wrap;html=1;" vertex="1" parent="G9r8HT_jU-UsG_awBwpW-21">
          <mxGeometry y="266" width="180" height="30" as="geometry" />
        </mxCell>
        <mxCell id="G9r8HT_jU-UsG_awBwpW-42" style="edgeStyle=orthogonalEdgeStyle;rounded=0;orthogonalLoop=1;jettySize=auto;html=1;entryX=0.016;entryY=0.398;entryDx=0;entryDy=0;entryPerimeter=0;" edge="1" parent="G9r8HT_jU-UsG_awBwpW-21" source="G9r8HT_jU-UsG_awBwpW-40" target="G9r8HT_jU-UsG_awBwpW-41">
          <mxGeometry relative="1" as="geometry" />
        </mxCell>
        <mxCell id="G9r8HT_jU-UsG_awBwpW-40" value="cString" style="text;strokeColor=none;fillColor=none;spacingLeft=4;spacingRight=4;overflow=hidden;rotatable=0;points=[[0,0.5],[1,0.5]];portConstraint=eastwest;fontSize=12;whiteSpace=wrap;html=1;" vertex="1" parent="G9r8HT_jU-UsG_awBwpW-21">
          <mxGeometry y="296" width="180" height="30" as="geometry" />
        </mxCell>
        <mxCell id="G9r8HT_jU-UsG_awBwpW-44" style="edgeStyle=orthogonalEdgeStyle;rounded=0;orthogonalLoop=1;jettySize=auto;html=1;entryX=1;entryY=0.5;entryDx=0;entryDy=0;exitX=1;exitY=0.5;exitDx=0;exitDy=0;" edge="1" parent="G9r8HT_jU-UsG_awBwpW-21" source="G9r8HT_jU-UsG_awBwpW-43" target="G9r8HT_jU-UsG_awBwpW-32">
          <mxGeometry relative="1" as="geometry">
            <Array as="points">
              <mxPoint x="180" y="340" />
              <mxPoint x="210" y="340" />
              <mxPoint x="210" y="161" />
            </Array>
          </mxGeometry>
        </mxCell>
        <mxCell id="G9r8HT_jU-UsG_awBwpW-43" value="dString" style="text;strokeColor=none;fillColor=none;spacingLeft=4;spacingRight=4;overflow=hidden;rotatable=0;points=[[0,0.5],[1,0.5]];portConstraint=eastwest;fontSize=12;whiteSpace=wrap;html=1;" vertex="1" parent="G9r8HT_jU-UsG_awBwpW-21">
          <mxGeometry y="326" width="180" height="30" as="geometry" />
        </mxCell>
        <mxCell id="G9r8HT_jU-UsG_awBwpW-46" value="&quot;123&quot; (str object)" style="text;strokeColor=none;fillColor=none;spacingLeft=4;spacingRight=4;overflow=hidden;rotatable=0;points=[[0,0.5],[1,0.5]];portConstraint=eastwest;fontSize=12;whiteSpace=wrap;html=1;" vertex="1" parent="G9r8HT_jU-UsG_awBwpW-21">
          <mxGeometry y="356" width="180" height="30" as="geometry" />
        </mxCell>
        <mxCell id="G9r8HT_jU-UsG_awBwpW-47" style="edgeStyle=orthogonalEdgeStyle;rounded=0;orthogonalLoop=1;jettySize=auto;html=1;entryX=0;entryY=0.5;entryDx=0;entryDy=0;" edge="1" parent="G9r8HT_jU-UsG_awBwpW-21" source="G9r8HT_jU-UsG_awBwpW-45" target="G9r8HT_jU-UsG_awBwpW-46">
          <mxGeometry relative="1" as="geometry" />
        </mxCell>
        <mxCell id="G9r8HT_jU-UsG_awBwpW-45" value="eString" style="text;strokeColor=none;fillColor=none;spacingLeft=4;spacingRight=4;overflow=hidden;rotatable=0;points=[[0,0.5],[1,0.5]];portConstraint=eastwest;fontSize=12;whiteSpace=wrap;html=1;" vertex="1" parent="G9r8HT_jU-UsG_awBwpW-21">
          <mxGeometry y="386" width="180" height="30" as="geometry" />
        </mxCell>
        <mxCell id="G9r8HT_jU-UsG_awBwpW-49" value="&quot;123123&quot; (str object)" style="text;strokeColor=none;fillColor=none;spacingLeft=4;spacingRight=4;overflow=hidden;rotatable=0;points=[[0,0.5],[1,0.5]];portConstraint=eastwest;fontSize=12;whiteSpace=wrap;html=1;" vertex="1" parent="G9r8HT_jU-UsG_awBwpW-21">
          <mxGeometry y="416" width="180" height="30" as="geometry" />
        </mxCell>
        <mxCell id="G9r8HT_jU-UsG_awBwpW-50" style="edgeStyle=orthogonalEdgeStyle;rounded=0;orthogonalLoop=1;jettySize=auto;html=1;entryX=0;entryY=0.5;entryDx=0;entryDy=0;" edge="1" parent="G9r8HT_jU-UsG_awBwpW-21" source="G9r8HT_jU-UsG_awBwpW-48" target="G9r8HT_jU-UsG_awBwpW-49">
          <mxGeometry relative="1" as="geometry" />
        </mxCell>
        <mxCell id="G9r8HT_jU-UsG_awBwpW-48" value="fString" style="text;strokeColor=none;fillColor=none;spacingLeft=4;spacingRight=4;overflow=hidden;rotatable=0;points=[[0,0.5],[1,0.5]];portConstraint=eastwest;fontSize=12;whiteSpace=wrap;html=1;" vertex="1" parent="G9r8HT_jU-UsG_awBwpW-21">
          <mxGeometry y="446" width="180" height="30" as="geometry" />
        </mxCell>
        <mxCell id="G9r8HT_jU-UsG_awBwpW-51" value="Memory Map - Second Block" style="swimlane;fontStyle=0;childLayout=stackLayout;horizontal=1;startSize=26;horizontalStack=0;resizeParent=1;resizeParentMax=0;resizeLast=0;collapsible=1;marginBottom=0;align=center;fontSize=14;" vertex="1" parent="1">
          <mxGeometry x="540" y="220" width="200" height="386" as="geometry">
            <mxRectangle x="220" y="220" width="60" height="30" as="alternateBounds" />
          </mxGeometry>
        </mxCell>
        <mxCell id="G9r8HT_jU-UsG_awBwpW-52" value="0" style="text;strokeColor=none;fillColor=none;spacingLeft=4;spacingRight=4;overflow=hidden;rotatable=0;points=[[0,0.5],[1,0.5]];portConstraint=eastwest;fontSize=12;whiteSpace=wrap;html=1;" vertex="1" parent="G9r8HT_jU-UsG_awBwpW-51">
          <mxGeometry y="26" width="200" height="30" as="geometry" />
        </mxCell>
        <mxCell id="G9r8HT_jU-UsG_awBwpW-53" value="3" style="text;strokeColor=none;fillColor=none;spacingLeft=4;spacingRight=4;overflow=hidden;rotatable=0;points=[[0,0.5],[1,0.5]];portConstraint=eastwest;fontSize=12;whiteSpace=wrap;html=1;" vertex="1" parent="G9r8HT_jU-UsG_awBwpW-51">
          <mxGeometry y="56" width="200" height="30" as="geometry" />
        </mxCell>
        <mxCell id="G9r8HT_jU-UsG_awBwpW-54" style="edgeStyle=orthogonalEdgeStyle;rounded=0;orthogonalLoop=1;jettySize=auto;html=1;entryX=0;entryY=0.5;entryDx=0;entryDy=0;" edge="1" parent="G9r8HT_jU-UsG_awBwpW-51" source="G9r8HT_jU-UsG_awBwpW-55" target="G9r8HT_jU-UsG_awBwpW-52">
          <mxGeometry relative="1" as="geometry" />
        </mxCell>
        <mxCell id="G9r8HT_jU-UsG_awBwpW-55" value="counter" style="text;strokeColor=none;fillColor=none;spacingLeft=4;spacingRight=4;overflow=hidden;rotatable=0;points=[[0,0.5],[1,0.5]];portConstraint=eastwest;fontSize=12;whiteSpace=wrap;html=1;" vertex="1" parent="G9r8HT_jU-UsG_awBwpW-51">
          <mxGeometry y="86" width="200" height="30" as="geometry" />
        </mxCell>
        <mxCell id="G9r8HT_jU-UsG_awBwpW-56" style="edgeStyle=orthogonalEdgeStyle;rounded=0;orthogonalLoop=1;jettySize=auto;html=1;entryX=0;entryY=0.5;entryDx=0;entryDy=0;" edge="1" parent="G9r8HT_jU-UsG_awBwpW-51" source="G9r8HT_jU-UsG_awBwpW-57" target="G9r8HT_jU-UsG_awBwpW-53">
          <mxGeometry relative="1" as="geometry">
            <Array as="points">
              <mxPoint x="-30" y="131" />
              <mxPoint x="-30" y="71" />
            </Array>
          </mxGeometry>
        </mxCell>
        <mxCell id="G9r8HT_jU-UsG_awBwpW-57" value="theNumberThre" style="text;strokeColor=none;fillColor=none;spacingLeft=4;spacingRight=4;overflow=hidden;rotatable=0;points=[[0,0.5],[1,0.5]];portConstraint=eastwest;fontSize=12;whiteSpace=wrap;html=1;" vertex="1" parent="G9r8HT_jU-UsG_awBwpW-51">
          <mxGeometry y="116" width="200" height="30" as="geometry" />
        </mxCell>
        <mxCell id="G9r8HT_jU-UsG_awBwpW-58" value="&quot;123&quot;" style="text;strokeColor=none;fillColor=none;spacingLeft=4;spacingRight=4;overflow=hidden;rotatable=0;points=[[0,0.5],[1,0.5]];portConstraint=eastwest;fontSize=12;whiteSpace=wrap;html=1;" vertex="1" parent="G9r8HT_jU-UsG_awBwpW-51">
          <mxGeometry y="146" width="200" height="30" as="geometry" />
        </mxCell>
        <mxCell id="G9r8HT_jU-UsG_awBwpW-59" style="edgeStyle=orthogonalEdgeStyle;rounded=0;orthogonalLoop=1;jettySize=auto;html=1;entryX=0;entryY=0.5;entryDx=0;entryDy=0;" edge="1" parent="G9r8HT_jU-UsG_awBwpW-51" source="G9r8HT_jU-UsG_awBwpW-60" target="G9r8HT_jU-UsG_awBwpW-58">
          <mxGeometry relative="1" as="geometry" />
        </mxCell>
        <mxCell id="G9r8HT_jU-UsG_awBwpW-60" value="aString" style="text;strokeColor=none;fillColor=none;spacingLeft=4;spacingRight=4;overflow=hidden;rotatable=0;points=[[0,0.5],[1,0.5]];portConstraint=eastwest;fontSize=12;whiteSpace=wrap;html=1;" vertex="1" parent="G9r8HT_jU-UsG_awBwpW-51">
          <mxGeometry y="176" width="200" height="30" as="geometry" />
        </mxCell>
        <mxCell id="G9r8HT_jU-UsG_awBwpW-62" style="edgeStyle=orthogonalEdgeStyle;rounded=0;orthogonalLoop=1;jettySize=auto;html=1;entryX=0;entryY=0.5;entryDx=0;entryDy=0;" edge="1" parent="G9r8HT_jU-UsG_awBwpW-51" source="G9r8HT_jU-UsG_awBwpW-63" target="G9r8HT_jU-UsG_awBwpW-61">
          <mxGeometry relative="1" as="geometry" />
        </mxCell>
        <mxCell id="G9r8HT_jU-UsG_awBwpW-76" style="edgeStyle=orthogonalEdgeStyle;rounded=0;orthogonalLoop=1;jettySize=auto;html=1;entryX=0;entryY=0.5;entryDx=0;entryDy=0;" edge="1" parent="G9r8HT_jU-UsG_awBwpW-51" source="G9r8HT_jU-UsG_awBwpW-63" target="G9r8HT_jU-UsG_awBwpW-58">
          <mxGeometry relative="1" as="geometry">
            <Array as="points">
              <mxPoint x="-40" y="221" />
              <mxPoint x="-40" y="161" />
            </Array>
          </mxGeometry>
        </mxCell>
        <mxCell id="G9r8HT_jU-UsG_awBwpW-63" value="bString" style="text;strokeColor=none;fillColor=none;spacingLeft=4;spacingRight=4;overflow=hidden;rotatable=0;points=[[0,0.5],[1,0.5]];portConstraint=eastwest;fontSize=12;whiteSpace=wrap;html=1;" vertex="1" parent="G9r8HT_jU-UsG_awBwpW-51">
          <mxGeometry y="206" width="200" height="30" as="geometry" />
        </mxCell>
        <mxCell id="G9r8HT_jU-UsG_awBwpW-65" style="edgeStyle=orthogonalEdgeStyle;rounded=0;orthogonalLoop=1;jettySize=auto;html=1;entryX=0.016;entryY=0.398;entryDx=0;entryDy=0;entryPerimeter=0;" edge="1" parent="G9r8HT_jU-UsG_awBwpW-51" source="G9r8HT_jU-UsG_awBwpW-66" target="G9r8HT_jU-UsG_awBwpW-64">
          <mxGeometry relative="1" as="geometry" />
        </mxCell>
        <mxCell id="G9r8HT_jU-UsG_awBwpW-79" style="edgeStyle=orthogonalEdgeStyle;rounded=0;orthogonalLoop=1;jettySize=auto;html=1;entryX=0;entryY=0.5;entryDx=0;entryDy=0;" edge="1" parent="G9r8HT_jU-UsG_awBwpW-51" source="G9r8HT_jU-UsG_awBwpW-66" target="G9r8HT_jU-UsG_awBwpW-78">
          <mxGeometry relative="1" as="geometry">
            <Array as="points">
              <mxPoint x="-40" y="251" />
              <mxPoint x="-40" y="371" />
            </Array>
          </mxGeometry>
        </mxCell>
        <mxCell id="G9r8HT_jU-UsG_awBwpW-66" value="cString" style="text;strokeColor=none;fillColor=none;spacingLeft=4;spacingRight=4;overflow=hidden;rotatable=0;points=[[0,0.5],[1,0.5]];portConstraint=eastwest;fontSize=12;whiteSpace=wrap;html=1;" vertex="1" parent="G9r8HT_jU-UsG_awBwpW-51">
          <mxGeometry y="236" width="200" height="30" as="geometry" />
        </mxCell>
        <mxCell id="G9r8HT_jU-UsG_awBwpW-80" style="edgeStyle=orthogonalEdgeStyle;rounded=0;orthogonalLoop=1;jettySize=auto;html=1;entryX=1;entryY=0.5;entryDx=0;entryDy=0;" edge="1" parent="G9r8HT_jU-UsG_awBwpW-51" source="G9r8HT_jU-UsG_awBwpW-68" target="G9r8HT_jU-UsG_awBwpW-78">
          <mxGeometry relative="1" as="geometry">
            <Array as="points">
              <mxPoint x="260" y="281" />
              <mxPoint x="260" y="370" />
            </Array>
          </mxGeometry>
        </mxCell>
        <mxCell id="G9r8HT_jU-UsG_awBwpW-68" value="dString" style="text;strokeColor=none;fillColor=none;spacingLeft=4;spacingRight=4;overflow=hidden;rotatable=0;points=[[0,0.5],[1,0.5]];portConstraint=eastwest;fontSize=12;whiteSpace=wrap;html=1;" vertex="1" parent="G9r8HT_jU-UsG_awBwpW-51">
          <mxGeometry y="266" width="200" height="30" as="geometry" />
        </mxCell>
        <mxCell id="G9r8HT_jU-UsG_awBwpW-70" style="edgeStyle=orthogonalEdgeStyle;rounded=0;orthogonalLoop=1;jettySize=auto;html=1;entryX=0;entryY=0.5;entryDx=0;entryDy=0;" edge="1" parent="G9r8HT_jU-UsG_awBwpW-51" source="G9r8HT_jU-UsG_awBwpW-71" target="G9r8HT_jU-UsG_awBwpW-69">
          <mxGeometry relative="1" as="geometry" />
        </mxCell>
        <mxCell id="G9r8HT_jU-UsG_awBwpW-83" style="edgeStyle=orthogonalEdgeStyle;rounded=0;orthogonalLoop=1;jettySize=auto;html=1;entryX=1;entryY=0.5;entryDx=0;entryDy=0;exitX=1;exitY=0.5;exitDx=0;exitDy=0;" edge="1" parent="G9r8HT_jU-UsG_awBwpW-51" source="G9r8HT_jU-UsG_awBwpW-71" target="G9r8HT_jU-UsG_awBwpW-58">
          <mxGeometry relative="1" as="geometry">
            <Array as="points">
              <mxPoint x="200" y="310" />
              <mxPoint x="240" y="310" />
              <mxPoint x="240" y="161" />
            </Array>
          </mxGeometry>
        </mxCell>
        <mxCell id="G9r8HT_jU-UsG_awBwpW-71" value="eString" style="text;strokeColor=none;fillColor=none;spacingLeft=4;spacingRight=4;overflow=hidden;rotatable=0;points=[[0,0.5],[1,0.5]];portConstraint=eastwest;fontSize=12;whiteSpace=wrap;html=1;" vertex="1" parent="G9r8HT_jU-UsG_awBwpW-51">
          <mxGeometry y="296" width="200" height="30" as="geometry" />
        </mxCell>
        <mxCell id="G9r8HT_jU-UsG_awBwpW-73" style="edgeStyle=orthogonalEdgeStyle;rounded=0;orthogonalLoop=1;jettySize=auto;html=1;entryX=0;entryY=0.5;entryDx=0;entryDy=0;" edge="1" parent="G9r8HT_jU-UsG_awBwpW-51" source="G9r8HT_jU-UsG_awBwpW-74" target="G9r8HT_jU-UsG_awBwpW-72">
          <mxGeometry relative="1" as="geometry" />
        </mxCell>
        <mxCell id="G9r8HT_jU-UsG_awBwpW-84" style="edgeStyle=orthogonalEdgeStyle;rounded=0;orthogonalLoop=1;jettySize=auto;html=1;entryX=1;entryY=0.5;entryDx=0;entryDy=0;exitX=1;exitY=0.5;exitDx=0;exitDy=0;" edge="1" parent="G9r8HT_jU-UsG_awBwpW-51" source="G9r8HT_jU-UsG_awBwpW-74" target="G9r8HT_jU-UsG_awBwpW-58">
          <mxGeometry relative="1" as="geometry">
            <Array as="points">
              <mxPoint x="200" y="340" />
              <mxPoint x="280" y="340" />
              <mxPoint x="280" y="161" />
            </Array>
          </mxGeometry>
        </mxCell>
        <mxCell id="G9r8HT_jU-UsG_awBwpW-74" value="fString" style="text;strokeColor=none;fillColor=none;spacingLeft=4;spacingRight=4;overflow=hidden;rotatable=0;points=[[0,0.5],[1,0.5]];portConstraint=eastwest;fontSize=12;whiteSpace=wrap;html=1;" vertex="1" parent="G9r8HT_jU-UsG_awBwpW-51">
          <mxGeometry y="326" width="200" height="30" as="geometry" />
        </mxCell>
        <mxCell id="G9r8HT_jU-UsG_awBwpW-78" value="&quot;123123&quot;" style="text;strokeColor=none;fillColor=none;spacingLeft=4;spacingRight=4;overflow=hidden;rotatable=0;points=[[0,0.5],[1,0.5]];portConstraint=eastwest;fontSize=12;whiteSpace=wrap;html=1;" vertex="1" parent="G9r8HT_jU-UsG_awBwpW-51">
          <mxGeometry y="356" width="200" height="30" as="geometry" />
        </mxCell>
      </root>
    </mxGraphModel>
  </diagram>
</mxfile>
